#!OML:ASF F:\VICON\USERDATA\INSTALL\rory3\rory3.ASF
:FULLY-SPECIFIED
:DEGREES
1980
root -1.71076 17.9329 -0.196332 -3.14728 -2.51751 2.26862
lowerback 12.2773 1.67448 -3.96759
upperback 2.22385 1.68916 -0.226013
thorax -4.65355 0.888294 1.72832
lowerneck -11.8112 -1.04757 -8.03835
upperneck 2.12031 -0.662155 7.84322
head 2.59264 -0.101277 3.6553
rclavicle 9.31182e-015 -1.08338e-014
rhumerus -32.2939 24.4969 -64.7949
rradius 126.362
rwrist 3.91207
rhand -34.2886 15.5442
rfingers 7.12502
rthumb -7.45816 -14.3043
lclavicle 9.31182e-015 -1.08338e-014
lhumerus -27.7625 -19.0708 64.0021
lradius 126.845
lwrist 10.5232
lhand -22.1629 9.8103
lfingers 7.12502
lthumb 4.25148 39.7476
rfemur -11.361 15.3444 10.7667
rtibia 45.8309
rfoot -24.3996 -10.968
rtoes -11.803
lfemur -12.748 -0.218058 -24.4727
ltibia 45.0741
lfoot -21.0952 1.93725
ltoes -9.05228
1981
root -1.70215 18.0373 -0.189256 -2.95198 -3.0214 2.36164
lowerback 12.0912 1.68252 -3.95048
upperback 2.09272 1.70438 -0.292372
thorax -4.68719 0.897443 1.64896
lowerneck -11.9284 -0.860024 -7.8397
upperneck 2.35591 -0.432738 7.66575
head 2.66196 0.00969829 3.58226
rclavicle 4.58292e-015 1.47846e-014
rhumerus -32.428 23.863 -62.9535
rradius 125.619
rwrist 3.88056
rhand -34.3754 15.5728
rfingers 7.12502
rthumb -7.54191 -14.2728
lclavicle 4.58292e-015 1.47846e-014
lhumerus -28.7708 -17.3305 61.722
lradius 126.254
lwrist 11.0342
lhand -21.7779 9.66275
lfingers 7.12502
lthumb 4.62323 39.5923
rfemur -11.3981 15.6054 10.667
rtibia 45.0683
rfoot -23.2051 -11.0215
rtoes -11.4704
lfemur -12.3866 -0.335762 -24.5388
ltibia 43.9561
lfoot -19.7819 2.29823
ltoes -10.5
1982
root -1.69418 18.1539 -0.183799 -2.66096 -3.4335 2.09081
lowerback 11.8001 1.61887 -3.53423
upperback 1.98395 1.68482 -0.277028
thorax -4.62824 0.88227 1.43912
lowerneck -12.15 -0.697972 -7.56546
upperneck 2.65951 -0.240687 7.42276
head 2.77181 0.102016 3.47569
rclavicle 8.90183e-015 -1.0312e-015
rhumerus -32.5446 23.2093 -61.043
rradius 124.771
rwrist 4.15691
rhand -34.6695 16.3577
rfingers 7.12502
rthumb -7.82579 -13.4775
lclavicle 8.90183e-015 -1.0312e-015
lhumerus -29.9067 -15.7282 59.3127
lradius 125.572
lwrist 11.2972
lhand -22.0072 9.52301
lfingers 7.12502
lthumb 4.40182 39.4573
rfemur -11.4383 15.6464 10.9887
rtibia 44.1717
rfoot -21.802 -11.1653
rtoes -11.8313
lfemur -12.1457 -0.565421 -24.1746
ltibia 42.8765
lfoot -18.3542 2.51885
ltoes -12.3616
1983
root -1.68614 18.2865 -0.171853 -2.34441 -3.78728 1.63947
lowerback 11.4309 1.54614 -2.92855
upperback 1.86216 1.68071 -0.186513
thorax -4.53714 0.872109 1.20038
lowerneck -12.2535 -0.557956 -7.36745
upperneck 2.90188 -0.0733597 7.20302
head 2.84752 0.179764 3.38691
rclavicle -1.10388e-014 -2.36057e-015
rhumerus -32.5287 22.539 -58.9828
rradius 123.71
rwrist 5.01577
rhand -34.8324 16.5835
rfingers 7.12502
rthumb -7.98301 -13.2458
lclavicle -1.10388e-014 -2.36057e-015
lhumerus -31.1162 -14.321 56.9924
lradius 124.754
lwrist 11.1179
lhand -22.9322 9.50689
lfingers 7.12502
lthumb 3.50861 39.4578
rfemur -11.3921 15.6143 11.5262
rtibia 43.168
rfoot -20.5478 -11.308
rtoes -11.6946
lfemur -11.8968 -0.802439 -23.5984
ltibia 41.8531
lfoot -16.8602 2.52827
ltoes -14.0393
1984
root -1.68263 18.4262 -0.155222 -1.96484 -4.08676 1.08882
lowerback 10.9163 1.45705 -2.23899
upperback 1.7306 1.66564 -0.0667311
thorax -4.37323 0.85507 0.949695
lowerneck -12.1528 -0.437577 -7.18412
upperneck 2.9662 0.0628973 7.00445
head 2.84021 0.239362 3.30327
rclavicle -9.22174e-015 -7.34261e-015
rhumerus -32.2111 21.9505 -56.8588
rradius 122.479
rwrist 6.17442
rhand -34.6283 15.8035
rfingers 7.12502
rthumb -7.78598 -14.0331
lclavicle -9.22174e-015 -7.34261e-015
lhumerus -32.1194 -12.9739 54.6205
lradius 123.614
lwrist 10.846
lhand -23.6289 9.21597
lfingers 7.12502
lthumb 2.83579 39.1769
rfemur -11.3261 15.5824 12.1866
rtibia 42.1097
rfoot -19.4389 -11.3793
rtoes -10.6367
lfemur -11.7059 -1.02469 -22.8891
ltibia 40.8523
lfoot -15.2744 2.39827
ltoes -15.5099
1985
root -1.68587 18.57 -0.140337 -1.48628 -4.3089 0.480357
lowerback 10.3519 1.35479 -1.54435
upperback 1.60836 1.62719 0.0598818
thorax -4.17092 0.826583 0.707459
lowerneck -12.2944 -0.35954 -6.99612
upperneck 3.17746 0.148858 6.8502
head 2.92005 0.279936 3.23208
rclavicle 6.60183e-015 -7.90169e-015
rhumerus -31.8441 21.4417 -54.6899
rradius 121.106
rwrist 7.14502
rhand -34.315 15.5022
rfingers 7.12502
rthumb -7.48366 -14.3454
lclavicle 6.60183e-015 -7.90169e-015
lhumerus -32.8215 -11.6906 52.0644
lradius 122.127
lwrist 10.7075
lhand -23.7119 8.62894
lfingers 7.12502
lthumb 2.75561 38.5909
rfemur -11.3654 15.5111 12.9341
rtibia 41.0608
rfoot -18.3027 -11.67
rtoes -10.4923
lfemur -11.6357 -1.24083 -22.0746
ltibia 39.8364
lfoot -13.6167 2.21294
ltoes -17.1043
1986
root -1.6956 18.7157 -0.131498 -0.960129 -4.36746 -0.0841911
lowerback 9.83895 1.25023 -0.925407
upperback 1.44453 1.56779 0.174172
thorax -4.04179 0.789642 0.49536
lowerneck -12.4285 -0.328745 -6.94506
upperneck 3.3935 0.180587 6.87098
head 3.00453 0.299304 3.23433
rclavicle 3.0206e-016 -1.20917e-014
rhumerus -31.8689 20.8885 -52.5508
rradius 119.625
rwrist 7.94271
rhand -34.1656 16.0583
rfingers 7.12502
rthumb -7.33945 -13.7944
lclavicle 3.0206e-016 -1.20917e-014
lhumerus -33.4258 -10.6562 49.5104
lradius 120.442
lwrist 10.6206
lhand -23.6475 8.57655
lfingers 7.12502
lthumb 2.81775 38.5377
rfemur -11.5115 15.2886 13.661
rtibia 40.1223
rfoot -17.1981 -12.1673
rtoes -11.6699
lfemur -11.6735 -1.42836 -21.2471
ltibia 38.7948
lfoot -11.8023 1.84022
ltoes -17.6706
1987
root -1.70873 18.859 -0.126775 -0.564354 -4.25488 -0.413171
lowerback 9.46637 1.14764 -0.576027
upperback 1.29607 1.47436 0.245632
thorax -3.98048 0.739408 0.391179
lowerneck -12.5166 -0.321192 -7.01037
upperneck 3.58344 0.188334 7.02591
head 3.0757 0.310532 3.29533
rclavicle 9.75986e-015 -4.75996e-015
rhumerus -31.9152 20.4201 -50.4047
rradius 118.122
rwrist 8.44415
rhand -34.2471 15.7887
rfingers 7.12502
rthumb -7.41805 -14.0612
lclavicle 9.75986e-015 -4.75996e-015
lhumerus -33.917 -9.82943 47.0476
lradius 118.73
lwrist 10.8126
lhand -23.6085 9.29483
lfingers 7.12502
lthumb 2.85544 39.2555
rfemur -11.5605 15.0315 14.1774
rtibia 39.3154
rfoot -16.082 -12.441
rtoes -12.4891
lfemur -11.6295 -1.65491 -20.6464
ltibia 37.7116
lfoot -9.84124 1.4101
ltoes -17.8277
1988
root -1.7261 18.9888 -0.126754 -0.367466 -4.09208 -0.326166
lowerback 9.21807 1.07541 -0.722912
upperback 1.28416 1.36476 0.230213
thorax -3.85629 0.68714 0.476293
lowerneck -12.6642 -0.353836 -7.05731
upperneck 3.59927 0.152654 7.13951
head 3.10685 0.299897 3.33716
rclavicle 8.65412e-016 -6.28035e-015
rhumerus -31.601 19.8758 -48.1453
rradius 116.468
rwrist 8.56849
rhand -34.6407 15.5946
rfingers 7.12502
rthumb -7.79801 -14.2416
lclavicle 8.65412e-016 -6.28035e-015
lhumerus -34.0629 -8.93131 44.5747
lradius 116.818
lwrist 11.1557
lhand -23.0096 9.84935
lfingers 7.12502
lthumb 3.43383 39.8014
rfemur -11.4896 14.8413 14.2867
rtibia 38.6492
rfoot -14.6044 -12.1766
rtoes -12.5815
lfemur -11.4584 -1.88233 -20.4973
ltibia 36.6278
lfoot -7.79776 1.10465
ltoes -18.1353
1989
root -1.74715 19.1191 -0.131532 -0.141766 -3.90843 -0.276045
lowerback 8.95675 1.02444 -0.861802
upperback 1.24993 1.28593 0.235291
thorax -3.7483 0.650063 0.573656
lowerneck -12.5669 -0.433231 -7.0683
upperneck 3.43652 0.0489447 7.13743
head 3.0497 0.246606 3.33024
rclavicle 6.98192e-015 -7.18731e-015
rhumerus -31.3336 19.3087 -45.8559
rradius 114.599
rwrist 8.63946
rhand -35.1537 16.1216
rfingers 7.12502
rthumb -8.29315 -13.6957
lclavicle 6.98192e-015 -7.18731e-015
lhumerus -33.9981 -8.14899 42.1969
lradius 114.514
lwrist 11.4522
lhand -22.6272 9.78039
lfingers 7.12502
lthumb 3.80309 39.7262
rfemur -11.4421 14.6898 14.4542
rtibia 38.0323
rfoot -13.2233 -11.491
rtoes -12.3116
lfemur -11.3564 -2.06421 -20.288
ltibia 35.5801
lfoot -5.71271 0.821943
ltoes -18.2132
1990
root -1.76931 19.2415 -0.138271 0.131707 -3.71809 -0.462252
lowerback 8.73086 0.977136 -0.739355
upperback 1.14849 1.23864 0.280397
thorax -3.7253 0.625651 0.560025
lowerneck -12.3752 -0.522707 -7.0316
upperneck 3.34434 -0.083092 7.11632
head 3.00086 0.177426 3.30803
rclavicle 1.58344e-014 -1.26725e-015
rhumerus -31.2173 18.876 -43.65
rradius 112.653
rwrist 8.61456
rhand -35.1279 16.0329
rfingers 7.12502
rthumb -8.26825 -13.7853
lclavicle 1.58344e-014 -1.26725e-015
lhumerus -33.8258 -7.67211 39.9243
lradius 111.959
lwrist 11.6055
lhand -22.7503 9.39769
lfingers 7.12502
lthumb 3.6842 39.3456
rfemur -11.4469 14.6448 14.8764
rtibia 37.4715
rfoot -12.4123 -10.6886
rtoes -12.1148
lfemur -11.3388 -2.28135 -19.7801
ltibia 34.632
lfoot -3.76877 0.633571
ltoes -17.7238
